<?xml version="1.0" encoding="UTF-8" standalone="no"?>
<!-- Created with Inkscape (http://www.inkscape.org/) -->

<svg
   xmlns:dc="http://purl.org/dc/elements/1.1/"
   xmlns:cc="http://creativecommons.org/ns#"
   xmlns:rdf="http://www.w3.org/1999/02/22-rdf-syntax-ns#"
   xmlns:svg="http://www.w3.org/2000/svg"
   xmlns="http://www.w3.org/2000/svg"
   xmlns:sodipodi="http://sodipodi.sourceforge.net/DTD/sodipodi-0.dtd"
   xmlns:inkscape="http://www.inkscape.org/namespaces/inkscape"
   width="48"
   height="48"
   viewBox="0 0 48 48"
   id="svg2"
   version="1.1"
   inkscape:version="0.91 r13725"
   inkscape:export-filename="/home/jcuenod/Pictures/fireflash/favicon-180x180.png"
   inkscape:export-xdpi="337.5"
   inkscape:export-ydpi="337.5"
   sodipodi:docname="fireflash.svg">
  <defs
     id="defs4" />
  <sodipodi:namedview
     id="base"
     pagecolor="#ffffff"
     bordercolor="#666666"
     borderopacity="1.0"
     inkscape:pageopacity="0.0"
     inkscape:pageshadow="2"
     inkscape:zoom="1.6361237"
     inkscape:cx="-45.728668"
     inkscape:cy="83.515218"
     inkscape:document-units="px"
     inkscape:current-layer="layer1"
     showgrid="false"
     units="px"
     inkscape:window-width="1366"
     inkscape:window-height="768"
     inkscape:window-x="0"
     inkscape:window-y="0"
     inkscape:window-maximized="1" />
  <metadata
     id="metadata7">
    <rdf:RDF>
      <cc:Work
         rdf:about="">
        <dc:format>image/svg+xml</dc:format>
        <dc:type
           rdf:resource="http://purl.org/dc/dcmitype/StillImage" />
        <dc:title />
      </cc:Work>
    </rdf:RDF>
  </metadata>
  <g
     inkscape:label="Layer 1"
     inkscape:groupmode="layer"
     id="layer1"
     transform="translate(0,-1004.3622)">
    <g
       id="g3412"
       transform="matrix(0.240596,-0.02953966,0.02953966,0.240596,149.94572,865.26486)"
       inkscape:transform-center-x="4.7137248"
       inkscape:transform-center-y="-0.85375902">
      <path
         style="fill:#060606"
         d="m -554.74023,-95.066406 c -2.02908,92.3931094 -36.2979,180.350113 -88.15625,243.886716 -1.82228,-31.00685 -8.63645,-52.40393 -24.94141,-82.076169 -3.66002,56.327619 -41.82931,102.243899 -53.48633,158.679689 -15.79024,76.42876 -9.59957,198.10259 188.1582,251.50976 -91.52417,-71.42609 -148.26211,-172.1443 -82.93554,-254.87695 30.43901,-38.5494 96.3125,-154.24023 96.3125,-154.24023 0,0 15.44263,35.90711 8.94364,98.2525 0.85115,44.82074 -65.03727,131.93611 -55.99638,175.49359 0.76324,0.75725 16.01337,-2.20642 35.78907,-6.95703 25.47893,-6.12067 34.58304,-7.77113 34.92968,-6.32813 0.25786,1.07339 -6.18273,34.58841 -14.31054,74.47657 -8.12781,39.88816 -14.55585,73.44544 -14.28516,74.57226 0.2707,1.12687 1.1563,1.37941 1.96875,0.56055 2.88345,-2.90624 132.93041,-243.2518 132.52734,-244.92969 -0.27058,-1.12636 -12.68371,1.24178 -36.51562,6.9668 -22.04171,5.29496 -26.21553,9.71786 -38.34487,11.0053 -24.40337,0.75708 -40.72275,15.65078 -6.77037,-51.33567 33.95238,-66.98645 -27.18368,-109.4242 -49.16852,-141.456741 35.50888,22.54285 101.08156,55.880111 123.37084,86.473531 96.32602,127.46609 10.2365,289.46688 -123.52846,332.32338 401.25904,-86.99705 154.21919,-435.231839 116.22657,-462.144528 11.62804,25.434731 5.77648,64.679188 -5.85157,89.388668 C -419.6679,-15.70287 -554.7402,-95.066366 -554.7402,-95.066366 Z"
         transform="matrix(0.57453621,0.13801788,-0.13801788,0.57453621,-557.65061,367.27165)"
         id="path3414"
         inkscape:connector-curvature="0"
         sodipodi:nodetypes="cccccscccsssssssczccccccc" />
    </g>
    <g
       inkscape:transform-center-y="-0.48072275"
       inkscape:transform-center-x="2.6540118"
       transform="matrix(0.13546504,-0.016632,0.016632,0.13546504,136.8293,958.90763)"
       id="g3428"
       style="fill:#800000">
      <path
         sodipodi:nodetypes="cccccscccsssssssczccccccc"
         inkscape:connector-curvature="0"
         id="path3430"
         transform="matrix(0.57453621,0.13801788,-0.13801788,0.57453621,-557.65061,367.27165)"
         d="m -554.74023,-95.066406 c -2.02908,92.3931094 -36.2979,180.350113 -88.15625,243.886716 -1.82228,-31.00685 -8.63645,-52.40393 -24.94141,-82.076169 -3.66002,56.327619 -41.82931,102.243899 -53.48633,158.679689 -15.79024,76.42876 -9.59957,198.10259 188.1582,251.50976 -91.52417,-71.42609 -148.26211,-172.1443 -82.93554,-254.87695 30.43901,-38.5494 96.3125,-154.24023 96.3125,-154.24023 0,0 15.44263,35.90711 8.94364,98.2525 0.85115,44.82074 -65.03727,131.93611 -55.99638,175.49359 0.76324,0.75725 16.01337,-2.20642 35.78907,-6.95703 25.47893,-6.12067 34.58304,-7.77113 34.92968,-6.32813 0.25786,1.07339 -6.18273,34.58841 -14.31054,74.47657 -8.12781,39.88816 -14.55585,73.44544 -14.28516,74.57226 0.2707,1.12687 1.1563,1.37941 1.96875,0.56055 2.88345,-2.90624 132.93041,-243.2518 132.52734,-244.92969 -0.27058,-1.12636 -12.68371,1.24178 -36.51562,6.9668 -22.04171,5.29496 -26.21553,9.71786 -38.34487,11.0053 -24.40337,0.75708 -40.72275,15.65078 -6.77037,-51.33567 33.95238,-66.98645 -27.18368,-109.4242 -49.16852,-141.456741 35.50888,22.54285 101.08156,55.880111 123.37084,86.473531 96.32602,127.46609 10.2365,289.46688 -123.52846,332.32338 401.25904,-86.99705 154.21919,-435.231839 116.22657,-462.144528 11.62804,25.434731 5.77648,64.679188 -5.85157,89.388668 C -419.6679,-15.70287 -554.7402,-95.066366 -554.7402,-95.066366 Z"
         style="fill:#800000" />
    </g>
  </g>
</svg>
